2.2Hz3min_grf.mot
version=1
nRows=22
nColumns 19
inDegrees=yes
endheader
time	1_ground_force_vx	1_ground_force_vy	1_ground_force_vz	1_ground_force_px	1_ground_force_py	1_ground_force_pz	1_ground_torque_x	1_ground_torque_y	1_ground_torque_z	2_ground_force_vx	2_ground_force_vy	2_ground_force_vz	2_ground_force_px	2_ground_force_py	2_ground_force_pz	2_ground_torque_x	2_ground_torque_y	2_ground_torque_z
            3.740000	          -30.857711	          811.915143	         -123.603904	           -0.168778	            0.006044	           -0.360929	           -0.316262	            8.321344	           -1.266820	            2.691318	          897.490370	          177.633753	           -0.205299	            0.006012	           -0.773366	           -0.030746	          -10.253037	           -2.029309
            3.740500	          -30.213313	          807.045175	         -122.938540	           -0.168363	            0.006044	           -0.360802	           -0.309751	            8.273937	           -1.260383	            2.843625	          894.177897	          177.152569	           -0.205076	            0.006014	           -0.773522	           -0.032217	          -10.130546	           -2.007042
            3.741000	          -30.485124	          802.354024	         -121.994969	           -0.167982	            0.006045	           -0.360965	           -0.304495	            8.014161	           -1.218524	            3.050154	          888.839482	          176.804946	           -0.205074	            0.006014	           -0.773522	           -0.034411	          -10.027660	           -1.994668
            3.741500	          -30.298961	          797.663871	         -121.235974	           -0.167752	            0.006044	           -0.360857	           -0.300148	            7.901832	           -1.200990	            3.113373	          884.237959	          176.225362	           -0.204800	            0.006015	           -0.773527	           -0.034971	           -9.932247	           -1.979460
            3.742000	          -30.295652	          793.873739	         -120.197516	           -0.167492	            0.006044	           -0.360828	           -0.296994	            7.782483	           -1.178317	            3.081480	          880.005049	          175.459420	           -0.204699	            0.006015	           -0.773600	           -0.034614	           -9.884931	           -1.970903
            3.742500	          -29.972659	          789.905536	         -119.665047	           -0.167258	            0.006044	           -0.360710	           -0.295956	            7.799674	           -1.181595	            3.475492	          874.666641	          175.299430	           -0.204443	            0.006017	           -0.773667	           -0.038718	           -9.744010	           -1.952880
            3.743000	          -29.877871	          784.133514	         -118.864611	           -0.166900	            0.006044	           -0.360728	           -0.299009	            7.847382	           -1.189563	            3.581634	          871.169629	          174.864545	           -0.204303	            0.006017	           -0.773772	           -0.039720	           -9.661136	           -1.939221
            3.743500	          -29.554294	          779.443583	         -118.151809	           -0.166406	            0.006044	           -0.360715	           -0.293861	            7.750078	           -1.174794	            3.833623	          866.200167	          174.377439	           -0.204110	            0.006019	           -0.774016	           -0.042431	           -9.587307	           -1.930050
            3.744000	          -29.368407	          774.393428	         -117.531917	           -0.166113	            0.006044	           -0.360735	           -0.292109	            7.702401	           -1.169016	            3.663236	          861.413764	          173.750362	           -0.203958	            0.006019	           -0.773943	           -0.040206	           -9.454470	           -1.907002
            3.744500	          -28.953450	          769.523809	         -116.957688	           -0.165982	            0.006044	           -0.360751	           -0.285032	            7.575582	           -1.151391	            4.101295	          856.813260	          173.264460	           -0.203679	            0.006021	           -0.774066	           -0.045028	           -9.406866	           -1.902253
            3.745000	          -28.996932	          767.176973	         -116.188076	           -0.165700	            0.006043	           -0.360509	           -0.279083	            7.383756	           -1.118261	            4.114882	          852.949134	          172.405971	           -0.203713	            0.006021	           -0.774060	           -0.045207	           -9.370754	           -1.894104
            3.745500	          -28.809823	          761.043393	         -115.160122	           -0.165256	            0.006043	           -0.360477	           -0.272938	            7.209964	           -1.091003	            4.179971	          847.796133	          171.542832	           -0.203356	            0.006022	           -0.774031	           -0.045806	           -9.290499	           -1.879837
            3.746000	          -28.258105	          757.256439	         -114.810872	           -0.165099	            0.006043	           -0.360415	           -0.274625	            7.359371	           -1.115786	            4.292575	          842.459220	          170.679047	           -0.203162	            0.006023	           -0.774100	           -0.047033	           -9.230760	           -1.870117
            3.746500	          -28.255491	          751.665359	         -114.192859	           -0.164752	            0.006043	           -0.360487	           -0.274248	            7.295678	           -1.108358	            4.211112	          838.963206	          169.774977	           -0.203110	            0.006024	           -0.774253	           -0.045865	           -9.137495	           -1.849089
            3.747000	          -28.069019	          747.154912	         -113.295520	           -0.164386	            0.006043	           -0.360491	           -0.273133	            7.270389	           -1.102452	            4.232901	          832.887551	          169.424774	           -0.202833	            0.006024	           -0.774179	           -0.045632	           -8.978742	           -1.826443
            3.747500	          -27.837697	          743.727261	         -112.714637	           -0.164144	            0.006042	           -0.360282	           -0.269930	            7.211610	           -1.092946	            4.246487	          829.023426	          168.566285	           -0.202634	            0.006026	           -0.774400	           -0.045893	           -8.959498	           -1.821745
            3.748000	          -27.880425	          738.495904	         -111.865688	           -0.163903	            0.006043	           -0.360333	           -0.264871	            7.015884	           -1.062750	            4.363784	          822.397133	          167.791742	           -0.202363	            0.006026	           -0.774221	           -0.047058	           -8.868520	           -1.809423
            3.748500	          -27.282093	          732.364762	         -111.389029	           -0.163624	            0.006044	           -0.360556	           -0.255313	            6.853664	           -1.042408	            4.423639	          818.716710	          167.121572	           -0.202259	            0.006027	           -0.774390	           -0.047736	           -8.834812	           -1.803417
            3.749000	          -26.913145	          728.396493	         -110.810821	           -0.163240	            0.006043	           -0.360470	           -0.250221	            6.772152	           -1.030246	            4.488023	          813.748122	          166.165249	           -0.202001	            0.006028	           -0.774282	           -0.048304	           -8.758349	           -1.788432
            3.749500	          -26.818066	          723.524921	         -109.823081	           -0.162845	            0.006043	           -0.360316	           -0.250779	            6.765779	           -1.026970	            4.554461	          808.226794	          165.347763	           -0.201797	            0.006029	           -0.774435	           -0.049206	           -8.732046	           -1.786410
            3.750000	          -26.770330	          719.376884	         -109.382422	           -0.162616	            0.006042	           -0.360035	           -0.251789	            6.766116	           -1.028799	            4.429677	          803.808172	          164.909693	           -0.201670	            0.006029	           -0.774457	           -0.047615	           -8.640216	           -1.772631
            3.750500	          -26.493260	          713.967258	         -108.993578	           -0.162236	            0.006042	           -0.360169	           -0.247739	            6.676319	           -1.019201	            4.351496	          799.391850	          163.908465	           -0.201548	            0.006030	           -0.774504	           -0.046544	           -8.550441	           -1.753195
